<svg version="1.1" id="Layer_1" xmlns="http://www.w3.org/2000/svg"
    xmlns:xlink="http://www.w3.org/1999/xlink" x="0px" y="0px"
    width="100%" viewBox="0 0 800 736" enable-background="new 0 0 800 736" xml:space="preserve">
<path fill="#000000" opacity="1.000000" stroke="none" 
	d="
M445.000854,122.586044 
	C452.500061,122.612396 459.584473,121.947952 466.481720,122.799568 
	C484.993866,125.085304 503.383942,127.868248 515.295593,145.106049 
	C519.141296,150.671387 524.134094,155.438675 528.542847,160.621475 
	C536.934937,170.486771 548.400818,175.235016 560.067505,179.654739 
	C572.111145,184.217239 584.531677,187.404816 597.160156,189.860840 
	C613.202576,192.980850 623.369019,202.739670 628.196777,218.099472 
	C632.812439,232.784515 635.054504,247.823837 636.740784,263.204102 
	C639.669922,289.919617 640.109131,316.607056 639.836731,343.361877 
	C639.633362,363.344421 639.135315,383.379517 637.799866,403.270416 
	C636.845703,417.481934 636.832703,431.781219 635.141846,445.959442 
	C633.903625,456.342346 628.275208,462.475800 616.133362,466.141571 
	C605.798767,469.261749 595.213074,470.397552 584.506104,471.715912 
	C564.847412,474.136414 545.241516,473.171509 525.644043,473.043213 
	C504.891602,472.907349 484.148773,471.508270 463.527496,468.581848 
	C452.575562,467.027710 441.500671,465.990387 430.833710,463.155609 
	C393.952515,453.354370 362.549591,435.320740 341.238525,402.364288 
	C333.315826,390.112274 327.999695,377.041595 325.098877,362.699005 
	C322.552032,350.106598 320.635040,337.470306 321.988831,324.770935 
	C325.411346,292.665833 338.295258,264.945587 362.003540,242.575180 
	C373.480652,231.745743 386.288208,222.875763 400.942261,217.074295 
	C408.415100,214.115814 416.170013,211.901245 424.221619,210.338547 
	C435.965363,208.059265 447.641296,207.604599 459.314606,208.864731 
	C471.165497,210.144058 482.302399,214.318756 493.244873,219.207092 
	C523.044617,232.519547 543.248230,255.201782 557.516235,283.805878 
	C564.970398,298.749786 570.227051,314.638092 569.849365,331.340820 
	C569.161865,361.739685 559.953552,389.330109 538.673584,411.960205 
	C528.872192,422.383423 519.004517,432.768311 507.734222,441.660828 
	C504.651245,444.093384 501.590912,446.898010 496.844940,447.058197 
	C497.119598,442.961426 499.466827,441.350891 501.604828,439.562286 
	C518.109680,425.754578 533.900940,411.235413 546.027771,393.253937 
	C552.832581,383.164001 557.742004,372.255371 560.916992,360.377472 
	C565.186035,344.406250 565.011841,328.235992 562.246582,312.454224 
	C559.679138,297.801422 552.578552,284.367767 544.431702,271.781219 
	C532.132874,252.780075 516.695679,236.963211 496.619873,226.159103 
	C487.266998,221.125702 477.180389,218.072357 466.662445,216.208786 
	C454.746582,214.097534 442.796692,213.613388 430.857788,214.956985 
	C402.477631,218.150879 378.653778,230.329391 360.056946,252.205215 
	C352.954285,260.560181 345.734528,268.908234 340.774078,278.773926 
	C336.236694,287.798004 333.631775,297.510651 331.119080,307.310181 
	C328.060364,319.239288 328.275848,331.257874 328.096313,343.340454 
	C327.848236,360.033264 333.011322,375.296600 340.462097,389.869293 
	C355.531250,419.342529 380.037903,438.206665 409.967621,450.766266 
	C425.463684,457.268951 441.880005,459.761139 458.389618,462.275879 
	C479.655151,465.515076 500.992157,465.372650 522.370056,465.963959 
	C536.018311,466.341492 549.682129,467.285583 563.312073,466.716400 
	C574.785522,466.237244 586.320801,466.431976 597.709778,465.374939 
	C606.656494,464.544495 615.536865,461.751221 623.516174,457.218567 
	C627.703674,454.839874 630.444397,451.038116 630.640625,445.926727 
	C632.582825,395.340210 634.571350,344.758331 633.782166,294.110046 
	C633.558655,279.767578 632.016418,265.508240 630.232544,251.387802 
	C628.430115,237.121063 626.005310,222.635529 618.025757,209.881012 
	C613.191345,202.153610 606.336426,197.858963 597.894348,195.509277 
	C597.110413,195.291092 596.239685,195.336365 595.410095,195.344910 
	C594.608887,195.353165 593.728088,195.217911 592.821106,196.551498 
	C597.487671,202.671158 601.140442,209.651505 598.846619,217.801544 
	C597.219177,223.584167 592.979675,227.825195 587.851929,230.827774 
	C575.701782,237.942383 563.388306,232.978516 556.649048,223.682983 
	C548.410339,212.319290 551.937622,201.961578 567.908081,189.157043 
	C565.397888,186.482498 562.130127,185.752167 558.754272,184.768906 
	C541.092834,179.624756 526.481628,169.971695 516.471497,154.264679 
	C507.236633,139.774170 493.911407,132.773026 477.223938,130.013275 
	C462.187866,127.526649 447.150604,126.759850 432.061920,127.332893 
	C408.392609,128.231827 389.331482,138.716934 373.588013,156.271408 
	C362.838104,168.257874 352.010376,180.347595 337.888855,188.697128 
	C329.475830,193.671448 320.154419,195.926041 310.609222,197.067795 
	C292.725159,199.207001 274.648834,197.738007 256.782013,199.202530 
	C243.337494,200.304550 229.855179,199.484268 216.447357,201.296036 
	C203.641647,203.026428 196.644196,211.212112 191.537643,221.804703 
	C184.544907,236.309906 182.024994,251.871964 180.111816,267.766876 
	C175.778717,303.766541 177.529770,339.867554 177.248581,375.932343 
	C177.116180,392.914490 177.860031,409.925476 178.665253,426.869873 
	C179.281967,439.847382 182.913544,452.570374 196.269440,459.272736 
	C202.809372,462.554688 209.937241,463.123047 217.064331,463.716034 
	C257.251617,467.059753 297.526581,465.073029 337.756531,465.796326 
	C342.938354,465.889465 348.102295,466.976227 353.493530,467.629211 
	C352.691742,471.101013 350.488342,471.257294 348.344482,471.237183 
	C314.862335,470.923248 281.372253,472.157471 247.893600,470.401947 
	C235.922806,469.774292 223.903076,470.112152 211.906952,469.926910 
	C197.681763,469.707245 182.127960,457.930176 177.446243,444.559784 
	C174.060440,434.890320 172.673340,425.049927 172.612488,414.873627 
	C172.537842,402.389008 170.458054,390.015839 170.763229,377.472046 
	C171.536911,345.670441 172.467636,313.870605 173.081894,282.064331 
	C173.472763,261.825531 176.988083,241.688782 185.321259,222.615738 
	C193.745865,203.333374 207.430099,193.373428 230.260178,194.496719 
	C225.786636,191.605240 222.470291,189.698135 219.413803,187.439377 
	C211.907974,181.892487 212.202850,176.716415 219.797989,171.375214 
	C226.453720,166.694656 233.675797,164.627655 241.780716,164.745102 
	C254.776718,164.933395 267.777466,164.798630 280.776215,164.790970 
	C288.034393,164.786697 294.434265,167.172485 300.020538,171.748962 
	C304.514099,175.430252 304.770966,180.534744 300.616455,184.687042 
	C298.004333,187.297745 295.011536,189.389496 291.358948,190.348495 
	C289.930359,190.723587 288.531097,191.134918 287.947693,192.592850 
	C288.623962,193.933792 289.764130,193.905640 290.680023,193.845490 
	C306.382904,192.814133 322.058472,191.619873 336.024597,183.190186 
	C346.254974,177.015320 354.516571,168.555557 362.703888,160.037613 
	C371.352142,151.040146 380.115875,142.166565 390.290161,134.872681 
	C397.944275,129.385483 406.738251,126.787659 415.809387,124.394615 
	C425.402069,121.863968 434.951569,123.208382 445.000854,122.586044 
M227.997620,186.500229 
	C237.106277,191.004745 247.156540,191.281158 256.910339,192.503876 
	C264.193146,193.416855 271.398224,190.795654 278.409088,189.124039 
	C284.368927,187.703033 290.418030,185.353302 295.461578,181.416824 
	C298.646301,178.931183 298.484070,176.826752 294.852966,175.053574 
	C291.892487,173.607864 288.744171,172.756332 285.392334,172.214981 
	C277.649780,170.964417 269.831177,171.177872 262.068848,170.380737 
	C250.282532,169.170380 238.567398,169.989807 227.237808,173.909485 
	C224.108734,174.992035 220.033279,175.976929 219.975800,179.666824 
	C219.913925,183.638229 224.203201,184.678162 227.997620,186.500229 
M588.492004,201.004379 
	C585.141968,198.214691 583.109558,193.704193 578.009705,193.206635 
	C565.775024,192.012970 554.182922,206.150223 558.688660,217.479614 
	C561.249939,223.919754 566.783875,227.762192 573.882324,228.736801 
	C582.824036,229.964462 588.935852,225.621765 592.982910,218.224762 
	C596.548706,211.707520 592.843933,206.513535 588.492004,201.004379 
z"/>
<path fill="#000000" opacity="1.000000" stroke="none" 
	d="
M415.223022,405.309814 
	C409.085815,409.373413 408.183746,409.174896 404.037170,403.737244 
	C401.226898,400.051971 398.255920,396.489258 395.314545,392.819031 
	C391.493042,393.699127 389.482941,396.943939 386.322083,398.397461 
	C379.988831,401.309692 374.601776,399.968109 370.835052,394.159576 
	C367.537750,389.074982 368.349854,383.942810 373.606140,379.639648 
	C382.223236,372.585083 391.017090,365.746307 399.745941,358.828552 
	C416.284363,345.721588 432.769012,332.545319 449.426910,319.591919 
	C452.480164,317.217682 452.161591,314.685089 451.497437,311.671448 
	C447.929993,295.483643 454.176910,279.751892 468.390045,271.285248 
	C489.011841,259.001068 513.907410,266.317383 523.691650,289.649780 
	C532.573303,310.829712 517.985229,335.531311 497.577972,339.861938 
	C488.020844,341.890045 479.672058,341.218781 471.250122,336.866577 
	C468.857666,335.630249 466.585144,335.040894 463.942169,337.175995 
	C452.312286,346.571228 440.535919,355.787506 428.714844,364.942322 
	C425.315063,367.575287 424.088165,370.041504 427.835144,373.267731 
	C428.325470,373.689941 428.617554,374.336975 429.025330,374.861328 
	C434.116119,381.407196 431.929138,387.280518 423.704773,389.400696 
	C421.404541,389.993622 420.256897,388.486664 419.094025,387.195496 
	C416.670776,384.504913 414.439758,381.641144 412.173676,378.901672 
	C409.963043,379.497009 408.768005,380.796204 407.544220,382.607941 
	C409.940735,386.865204 413.344299,390.460632 416.447815,394.271515 
	C420.405243,399.131012 420.277161,400.701385 415.223022,405.309814 
M427.378448,380.570557 
	C426.121643,377.608368 423.917084,375.287384 421.859161,372.938446 
	C418.748138,369.387512 419.051178,366.799164 422.841187,363.862488 
	C436.232147,353.486664 449.488525,342.935608 462.707489,332.340698 
	C465.463623,330.131683 467.792175,330.129822 470.851532,331.819611 
	C481.121490,337.491943 491.945984,338.473907 502.630280,333.438904 
	C520.089966,325.210968 527.135681,304.055298 517.502502,287.018372 
	C510.257874,274.205841 498.520020,268.582245 483.947174,270.348541 
	C471.320984,271.878876 462.031494,278.715179 457.495178,290.852264 
	C455.100159,297.260284 452.517639,303.738708 456.008087,310.937866 
	C457.914551,314.870117 457.972443,318.728699 453.270935,322.270538 
	C436.041351,335.250305 419.246246,348.807678 402.315948,362.183472 
	C393.971283,368.776093 385.614349,375.357269 377.417297,382.130402 
	C374.473663,384.562622 371.448151,387.359558 374.796997,391.750824 
	C378.144958,396.140961 380.297241,396.569763 385.307007,393.428802 
	C387.274506,392.195251 389.251953,390.882721 390.921448,389.288422 
	C394.360046,386.004608 396.697479,386.855927 399.336639,390.471100 
	C402.618622,394.966736 405.753571,399.660675 409.802307,403.467010 
	C412.089020,402.537140 413.659271,401.454712 414.616028,399.189209 
	C410.864990,394.443420 407.058380,389.634460 403.260773,384.818390 
	C402.073456,383.312683 400.916534,381.685516 402.988312,380.098236 
	C406.119446,377.699280 408.578369,374.367035 412.487762,373.080444 
	C412.848480,373.247742 413.237244,373.308655 413.430267,373.535858 
	C415.579712,376.065674 417.942017,378.459595 419.768982,381.207886 
	C422.471222,385.272858 424.820160,384.662354 427.378448,380.570557 
z"/>
<path fill="#000000" opacity="1.000000" stroke="none" 
	d="
M458.629028,519.254028 
	C457.302216,523.794128 454.881989,526.998718 450.428101,529.233032 
	C454.974670,536.703613 459.386963,543.953552 463.981598,551.503052 
	C459.340668,553.181091 456.209686,552.511536 453.911865,548.425720 
	C451.225647,543.649353 448.291534,539.009766 445.381622,534.362976 
	C444.162048,532.415466 443.018005,530.423767 440.312103,529.960266 
	C434.243896,528.920898 433.279022,529.632812 433.257172,535.760559 
	C433.241699,540.091919 433.210663,544.423279 433.211151,548.754639 
	C433.211426,551.236450 432.040771,552.352539 429.527802,552.340698 
	C427.034576,552.328918 425.827576,551.231873 425.825897,548.748962 
	C425.816650,535.087952 425.817902,521.426880 425.772125,507.765991 
	C425.762482,504.887085 427.412323,503.970490 429.910797,504.007904 
	C435.894684,504.097443 441.878326,503.514893 447.863098,504.476288 
	C455.309509,505.672424 459.551727,511.098938 458.629028,519.254028 
M435.152771,523.547363 
	C438.628967,523.586304 442.112946,523.785522 445.579071,523.617188 
	C448.764832,523.462524 450.734650,521.426514 451.503540,518.446472 
	C452.213409,515.695068 451.631714,513.164124 449.228851,511.330444 
	C447.807068,510.245361 436.139435,509.726166 434.604828,510.613312 
	C433.812439,511.071381 433.336212,511.758545 433.390472,512.616211 
	C433.614716,516.161560 432.196503,519.863953 435.152771,523.547363 
z"/>
<path fill="#000000" opacity="1.000000" stroke="none" 
	d="
M395.766235,544.552124 
	C388.831238,552.876404 376.339600,556.456238 365.345551,551.783447 
	C355.855927,547.750061 348.993164,537.443481 349.802277,526.691101 
	C350.541016,516.873352 355.845154,509.724945 364.789551,505.327423 
	C374.938599,500.337677 384.119324,502.849426 392.741333,508.930023 
	C394.368866,510.077789 397.489075,511.604340 395.279419,514.374878 
	C393.301331,516.854980 391.053467,516.241882 388.470093,514.110596 
	C378.621552,505.985474 369.823547,507.349945 362.141418,515.533081 
	C354.870117,523.278748 355.614807,535.146301 363.176483,542.487366 
	C369.460205,548.587646 380.978882,549.506226 388.848083,542.326599 
	C392.148346,539.315491 394.030823,539.908142 395.766235,544.552124 
z"/>
<path fill="#000000" opacity="1.000000" stroke="none" 
	d="
M253.644470,539.958557 
	C252.294846,533.454224 246.616898,533.177185 242.220703,531.419861 
	C236.271652,529.041687 230.171448,527.116089 229.116806,519.479004 
	C228.476456,514.841980 229.009689,510.343842 232.877426,507.360443 
	C237.094772,504.107361 241.887421,501.256134 247.523239,503.265106 
	C251.358414,504.632202 255.557922,505.795013 258.122955,509.381989 
	C259.297424,511.024323 261.187622,512.970032 258.771667,515.038147 
	C256.451447,517.024414 254.881531,515.923340 252.985382,513.856384 
	C247.137024,507.481384 240.022888,507.786926 236.391541,514.121155 
	C234.985641,516.573486 235.352493,518.434326 237.162766,520.396667 
	C240.022873,523.497070 243.950531,524.547424 247.713120,525.537720 
	C251.397247,526.507385 254.514206,528.129456 257.156982,530.716980 
	C264.104126,537.519043 260.988007,548.877563 251.900314,552.475037 
	C244.078308,555.571533 238.062775,553.055542 232.327713,548.322144 
	C230.300262,546.648804 228.236404,544.375000 230.959351,541.608215 
	C233.824966,538.696472 235.146515,541.601135 236.834702,543.317932 
	C242.999603,549.587341 250.916718,548.159119 253.644470,539.958557 
z"/>
<path fill="#000000" opacity="1.000000" stroke="none" 
	d="
M304.019958,552.372559 
	C289.688568,552.085754 291.193359,554.660400 291.094757,539.882996 
	C291.028259,529.914612 291.205566,519.944092 291.091125,509.976593 
	C291.043152,505.800262 292.633453,503.883240 296.945526,503.981598 
	C302.429199,504.106659 307.920990,503.822449 313.408569,503.851593 
	C315.824493,503.864410 319.066437,503.493530 318.921600,507.144653 
	C318.781921,510.666779 315.590729,510.203400 313.152710,510.235779 
	C308.544189,510.297028 303.934296,510.253479 299.048950,510.253479 
	C299.048950,514.922180 299.048950,518.980164 299.048950,523.073425 
	C301.991028,524.222412 304.843323,523.511597 307.616058,523.722229 
	C309.656525,523.877258 311.198303,524.366821 311.216675,526.839783 
	C311.235718,529.403870 309.482574,529.825928 307.557373,529.890076 
	C304.777710,529.982605 301.992645,529.913757 298.837006,529.913757 
	C298.837006,534.963684 298.843536,539.568542 298.834351,544.173462 
	C298.829498,546.599548 300.513885,546.682068 302.266876,546.683228 
	C306.757690,546.686096 311.250946,546.600403 315.738251,546.726624 
	C317.878998,546.786865 320.929016,545.888672 321.081665,549.472961 
	C321.243896,553.282532 318.084534,552.245056 315.990143,552.325317 
	C312.170166,552.471802 308.340698,552.370361 304.019958,552.372559 
z"/>
<path fill="#000000" opacity="1.000000" stroke="none" 
	d="
M515.833923,546.685242 
	C517.803101,546.749329 519.322998,546.668152 520.786804,546.916870 
	C522.447571,547.199036 522.634399,548.648315 522.629761,550.020386 
	C522.625061,551.388672 521.862976,552.258301 520.487244,552.260925 
	C512.163269,552.277100 503.838257,552.300415 495.515442,552.186218 
	C493.059601,552.152527 492.749237,550.166382 492.747772,548.227661 
	C492.737793,534.904358 492.766907,521.580933 492.733490,508.257721 
	C492.726624,505.526978 494.153717,504.201294 496.669250,504.150513 
	C503.491425,504.012787 510.317230,503.949005 517.139954,504.018250 
	C518.958008,504.036713 521.054810,504.489655 520.990479,506.978058 
	C520.923767,509.561371 518.950928,510.183990 516.788696,510.215973 
	C512.792419,510.275024 508.786621,510.415924 504.800598,510.212677 
	C501.246185,510.031464 499.934082,511.537170 500.281311,514.928711 
	C500.399445,516.082397 500.430969,517.276001 500.276764,518.421021 
	C499.706451,522.655518 501.624237,523.893982 505.680023,523.830505 
	C508.262238,523.790039 512.750427,522.028870 512.868469,526.595398 
	C512.997437,531.584900 508.271973,529.966187 505.570984,529.821777 
	C501.384857,529.598022 500.135742,530.920349 500.191864,535.103333 
	C500.347443,546.692200 500.171112,546.694519 511.862396,546.687866 
	C513.028198,546.687195 514.194031,546.686462 515.833923,546.685242 
z"/>
<path fill="#000000" opacity="1.000000" stroke="none" 
	d="
M551.558167,508.564819 
	C550.311157,505.141937 552.177551,504.146240 554.624939,504.104065 
	C564.116516,503.940491 573.611023,503.884247 583.104004,503.912689 
	C585.164307,503.918854 587.274353,504.509796 587.109619,507.267853 
	C586.969177,509.619537 585.163025,509.969727 583.209412,510.255981 
	C580.031250,510.721649 575.913757,508.593262 573.856628,511.654053 
	C572.075012,514.304993 573.304443,518.150452 573.274475,521.463440 
	C573.197571,529.958008 573.255981,538.453735 573.246216,546.949036 
	C573.243042,549.714294 573.296631,552.405640 569.240662,552.347046 
	C565.350159,552.290833 565.699707,549.635315 565.694641,547.136414 
	C565.672791,536.475586 565.562378,525.812866 565.739624,515.155090 
	C565.800171,511.516571 564.665955,510.079651 560.907227,510.144043 
	C557.868530,510.196136 554.548645,511.263519 551.558167,508.564819 
z"/>
<path fill="#000000" opacity="1.000000" stroke="none" 
	d="
M364.375732,609.504333 
	C364.939575,602.709961 368.324127,598.251770 373.501129,596.996948 
	C378.452271,595.796875 383.560303,597.872803 386.398621,602.238464 
	C389.589325,607.146179 388.687500,613.603699 384.342865,616.958374 
	C378.923309,621.143005 371.902191,620.720337 367.816681,615.906677 
	C366.309662,614.131042 365.120117,612.141785 364.375732,609.504333 
M383.676514,608.407776 
	C383.079590,602.723633 380.159729,600.381409 374.791229,601.280273 
	C371.731995,601.792603 367.638245,606.642395 368.608337,609.165771 
	C369.939514,612.628601 372.268005,616.255981 376.137665,616.288330 
	C380.048981,616.321228 383.265594,613.808472 383.676514,608.407776 
z"/>
<path fill="#000000" opacity="1.000000" stroke="none" 
	d="
M316.599579,619.763855 
	C308.837921,619.402649 305.898987,617.232422 303.559814,610.226685 
	C302.079498,605.793213 304.592346,602.513062 307.409637,599.743286 
	C311.018951,596.194885 316.376190,595.798584 320.702576,598.134766 
	C325.059662,600.487427 327.282867,604.309265 327.027100,609.047913 
	C326.721527,614.708984 323.095795,618.148804 316.599579,619.763855 
M318.507629,601.609985 
	C317.039673,601.468750 315.559387,601.133301 314.106201,601.225281 
	C310.713379,601.439941 308.663635,603.217285 308.292480,606.741577 
	C307.784180,611.567871 309.970367,615.499023 314.075653,616.274841 
	C317.427765,616.908325 319.841431,614.888489 321.247223,612.134766 
	C323.168060,608.372192 322.733337,604.787170 318.507629,601.609985 
z"/>
<path fill="#000000" opacity="1.000000" stroke="none" 
	d="
M399.443390,612.009460 
	C398.116272,605.480835 399.543884,601.669434 404.107178,598.730164 
	C408.346619,595.999512 413.735840,596.063232 417.632965,598.891541 
	C418.720245,599.680664 420.027679,600.563110 419.254425,602.065308 
	C418.371185,603.781372 416.917206,603.324219 415.390381,602.645508 
	C409.177032,599.883789 406.549683,600.924377 403.481323,606.107727 
	C401.550537,609.369324 403.801727,611.254761 405.188049,613.152039 
	C406.687103,615.203552 408.851593,617.329773 411.936829,616.258240 
	C414.707581,615.296021 416.244446,613.259583 416.066254,610.157959 
	C416.018860,609.332825 416.068695,608.493469 416.162323,607.670776 
	C416.300262,606.458862 416.653290,605.303345 418.155457,605.276855 
	C419.614838,605.251099 420.214508,606.246826 420.235443,607.541748 
	C420.283722,610.530579 420.271667,613.521179 420.227753,616.510193 
	C420.209198,617.771057 419.649292,618.617371 418.325439,619.075623 
	C410.537354,621.771545 403.991669,619.459167 399.443390,612.009460 
z"/>
<path fill="#000000" opacity="1.000000" stroke="none" 
	d="
M440.787506,596.833130 
	C447.776703,597.576782 450.061096,601.229980 447.248016,607.006470 
	C446.142731,609.276184 446.145844,610.974976 447.601349,612.940247 
	C448.665100,614.376526 449.471558,616.003418 450.449799,617.640930 
	C448.393951,619.763245 446.923340,619.734619 445.510559,617.408813 
	C444.220215,615.284485 442.827423,613.220947 441.435516,611.160461 
	C440.767395,610.171387 439.936676,609.263489 438.572845,609.673584 
	C437.191986,610.088806 437.247375,611.346313 437.023651,612.501404 
	C436.595825,614.710022 438.227661,618.694458 434.980225,618.629211 
	C431.284851,618.554932 433.061615,614.462769 432.791260,612.096313 
	C432.510254,609.636230 432.725128,607.120056 432.714722,604.628418 
	C432.682068,596.803467 432.680542,596.803467 440.787506,596.833130 
M439.007111,601.413574 
	C437.691620,601.792542 436.871185,602.675720 437.741852,603.891541 
	C438.850800,605.440186 440.615448,605.059204 442.200470,604.653442 
	C443.080994,604.428040 443.636658,603.676392 443.389496,602.819885 
	C442.831696,600.886780 441.121460,601.426575 439.007111,601.413574 
z"/>
<path fill="#000000" opacity="1.000000" stroke="none" 
	d="
M290.877838,618.755676 
	C286.645660,618.654602 287.807617,615.611816 287.866302,613.628967 
	C287.977173,609.881287 286.112152,609.144592 282.916382,609.272217 
	C279.938812,609.391174 276.976959,609.161743 277.350006,613.520874 
	C277.378296,613.851257 277.394684,614.193665 277.341461,614.518188 
	C277.071350,616.165405 278.055542,618.851074 275.355713,618.812988 
	C272.547485,618.773376 273.632904,616.089355 273.631989,614.480164 
	C273.628937,609.161072 273.794556,603.841431 273.957611,598.523865 
	C273.969482,598.137207 274.479645,597.765869 274.763702,597.379883 
	C277.739075,597.372314 277.344971,599.587280 277.299438,601.265259 
	C277.196594,605.054016 279.687286,605.033997 282.328400,604.991577 
	C285.021576,604.948364 287.911163,605.338562 287.775238,601.162170 
	C287.723694,599.579285 287.501221,597.344666 289.806335,597.285217 
	C292.400330,597.218384 292.378296,599.551758 292.246002,601.345642 
	C291.822876,607.084839 293.461548,612.941589 290.877838,618.755676 
z"/>
<path fill="#000000" opacity="1.000000" stroke="none" 
	d="
M243.868042,607.047974 
	C243.869431,606.067749 243.868484,605.571228 243.870529,605.074768 
	C243.902878,597.248596 250.365585,593.737244 257.379974,597.763855 
	C260.185699,599.374390 261.921051,601.642761 261.243011,605.087219 
	C260.544769,608.634033 257.956024,610.803955 254.746277,610.960205 
	C250.527893,611.165527 247.558945,611.667908 248.188889,616.898682 
	C248.339539,618.149597 247.517746,619.129395 246.014938,618.926331 
	C244.618271,618.737610 244.079941,617.680176 244.031403,616.461243 
	C243.912979,613.487244 243.914078,610.508545 243.868042,607.047974 
M255.464584,601.771362 
	C253.898026,601.091248 252.233200,601.131897 250.637619,601.414673 
	C247.760284,601.924622 247.699310,604.193787 249.047394,605.772583 
	C250.512009,607.487854 253.079544,606.990845 255.039261,606.288269 
	C256.904114,605.619751 257.124969,603.961121 255.464584,601.771362 
z"/>
<path fill="#000000" opacity="1.000000" stroke="none" 
	d="
M540.380981,604.124268 
	C540.374329,608.255859 540.424072,611.907837 540.335449,615.556458 
	C540.301819,616.941162 540.677185,618.934387 538.435120,618.898804 
	C536.215149,618.863708 536.542847,616.913757 536.636169,615.512146 
	C536.880920,611.837341 536.722534,609.046021 531.629578,609.187378 
	C527.620972,609.298645 525.768433,610.355591 526.161133,614.574646 
	C526.316711,616.245911 526.696960,618.790039 524.111450,618.885010 
	C521.020813,618.998596 521.786072,616.208130 521.739380,614.408142 
	C521.618774,609.765137 521.679932,605.116577 521.716248,600.470703 
	C521.728210,598.942322 521.867004,597.246277 523.902893,597.212769 
	C525.940735,597.179077 526.270203,598.894653 526.169617,600.395447 
	C525.771912,606.328979 530.215820,604.681458 533.348022,605.092590 
	C537.236633,605.603210 536.510986,602.765747 536.656006,600.534912 
	C536.740234,599.239746 536.575012,597.548584 538.364258,597.433899 
	C540.651794,597.287292 540.223145,599.273438 540.359863,600.658325 
	C540.457214,601.644470 540.380981,602.647766 540.380981,604.124268 
z"/>
<path fill="#000000" opacity="1.000000" stroke="none" 
	d="
M507.877930,599.006104 
	C511.731476,605.552734 509.248749,610.768677 502.236725,611.080505 
	C498.761688,611.234985 496.838989,612.028015 497.158691,615.868835 
	C497.268188,617.184509 497.017242,618.778015 495.285187,618.882935 
	C493.324890,619.001648 492.820160,617.458862 492.804901,615.849060 
	C492.756042,610.697449 492.768158,605.545227 492.774628,600.393250 
	C492.776703,598.738647 493.406769,597.178711 495.141205,597.091553 
	C499.355164,596.879700 503.776062,595.630920 507.877930,599.006104 
M505.004852,605.755188 
	C506.386292,602.735535 505.169403,601.320374 502.096497,601.321350 
	C500.091461,601.322021 497.379333,600.567078 497.322144,603.962769 
	C497.263702,607.432312 500.007202,606.564209 502.004913,606.648254 
	C502.803833,606.681885 503.616333,606.393066 505.004852,605.755188 
z"/>
<path fill="#000000" opacity="1.000000" stroke="none" 
	d="
M475.714600,605.274048 
	C477.596680,609.851685 480.797058,613.680908 480.320282,618.849365 
	C476.594604,619.460022 475.775940,614.555115 472.137787,615.669983 
	C469.843170,616.373108 467.149170,615.684509 465.540192,618.292358 
	C464.986206,619.190247 463.793579,619.267456 462.835724,618.706299 
	C462.056213,618.249634 461.681427,617.352295 461.993927,616.546387 
	C464.531525,610.002136 467.140259,603.485413 469.784393,596.816406 
	C474.212769,598.401794 474.295441,602.090210 475.714600,605.274048 
M469.464447,610.221191 
	C470.322815,612.011658 471.561890,611.902893 473.045715,610.958435 
	C473.178375,608.911255 472.273071,607.292664 471.200043,605.616760 
	C469.981049,606.772034 469.514923,608.096619 469.464447,610.221191 
z"/>
<path fill="#000000" opacity="1.000000" stroke="none" 
	d="
M371.329803,527.016479 
	C375.138336,525.142090 378.820618,524.667786 381.959351,527.067200 
	C384.270660,528.833984 385.126251,531.776306 384.360321,534.727295 
	C383.658661,537.430725 382.203735,539.538330 378.917267,539.594055 
	C375.648651,539.649475 372.153717,540.487854 370.041443,536.946838 
	C368.011047,533.543030 368.508270,530.296143 371.329803,527.016479 
z"/>
<path fill="#000000" opacity="1.000000" stroke="none" 
	d="
M558.894165,614.844849 
	C559.355530,609.858398 557.940979,605.999390 554.962891,602.527405 
	C553.817688,601.192322 551.463135,599.294983 553.829224,597.546021 
	C556.044434,595.908569 557.241760,598.316650 558.321716,599.968262 
	C559.207397,601.322693 559.899231,602.869568 561.724304,603.446777 
	C563.897766,602.107056 564.961792,599.757202 566.674866,598.016846 
	C567.371460,597.309143 568.318970,596.732422 569.319275,597.492676 
	C570.268677,598.214172 570.194275,599.254333 569.660583,600.169495 
	C568.996338,601.308716 568.274658,602.438538 567.421326,603.438965 
	C564.539917,606.817261 562.595825,610.434265 563.257812,615.130310 
	C563.462036,616.579346 563.812927,618.867188 561.325012,618.921570 
	C559.044250,618.971497 559.089417,616.925720 558.894165,614.844849 
z"/>
<path fill="#000000" opacity="1.000000" stroke="none" 
	d="
M345.104736,596.775146 
	C347.385681,596.798584 349.209686,596.789795 351.029816,596.869629 
	C352.238678,596.922546 353.428680,597.225830 353.532562,598.712952 
	C353.627655,600.074219 352.782349,601.098694 351.506256,601.062744 
	C346.822723,600.930603 347.424255,604.126709 347.308136,607.147156 
	C347.159332,611.017517 348.092468,615.001160 346.561981,618.762268 
	C343.647552,619.152527 343.328064,617.263977 343.180176,615.412842 
	C343.035431,613.600830 343.136688,611.769775 343.109894,609.947449 
	C343.051147,605.948975 344.719299,601.124695 338.357697,600.112732 
	C338.014862,600.058167 337.828125,599.022278 337.575562,598.458435 
	C339.614777,595.975891 342.300018,597.116821 345.104736,596.775146 
z"/>
<path fill="#000000" opacity="1.000000" stroke="none" 
	d="
M513.217285,302.146118 
	C513.182495,316.507416 503.919952,325.565582 492.378387,328.096710 
	C481.493408,330.483856 469.037292,322.780762 464.784698,311.498352 
	C461.096161,301.712463 464.760101,289.975800 473.670807,283.033752 
	C481.159027,277.199921 493.595490,277.056366 501.733429,282.414093 
	C508.749664,287.033386 512.217834,293.587555 513.217285,302.146118 
M487.587982,283.103119 
	C475.935638,283.792664 466.398315,292.986481 467.536743,303.888489 
	C468.734039,315.353973 475.922119,323.373169 487.941223,323.726562 
	C501.134918,324.114441 508.519135,313.471222 508.741852,303.583130 
	C508.947174,294.468445 501.857208,282.458618 487.587982,283.103119 
z"/>
</svg>